1[t130]
1[v10 l16ps20 @1 ]
1[o1 (ab>ceafd<a)2 ]
2-3[r1]
1-3[@label0]
1[v10 l16ps20 @1 ]
1[o1 (ab>ceafd<a)2 > gdca eafd<a> agfdc<ba>  ]
1[   eege ddfd   ddde ee<aa>   <aa>df afd<a>  <aaaa  a>dfa ] 
2,3[o5@0v10  ]

;2[ps1o3 a >f g8f8e <a8>f8g ]

;3[ps20]
2[ps15l16]
2[ a^rr g^rr g^rr f^rr g^^a rrrr  rrdrfrgr]
2[ ps10 a^^^ g^^^ g^^f rrar rrrr rrrr  rrrr rrrr]
3[ps15l16]
3[ e^rr d^rr d^rr c^rr d^^ e rrrr  <rrarar>dr]
3[ ps10 e^^^ d^^^ d^^c rrer rrrr rrrr  rrrr rrrr ]

1-3[@jump0]